<svg xmlns="http://www.w3.org/2000/svg" width="239" height="64" viewBox="0 0 239 64" fill="none"><g clip-path="url(#clip0_350_13)"><path fill-rule="evenodd" clip-rule="evenodd" d="M207.092 2.94152C207.198 2.2428 207.771 1.41793 208.673 0.796845C209.576 0.175763 210.575 -0.0959602 211.303 0.030197C211.197 0.738618 210.624 1.55379 209.722 2.17487C208.819 2.79595 207.819 3.06767 207.092 2.94152ZM204.753 4.6592C204.462 3.9993 204.52 3.01915 204.957 2.03901C205.393 1.06857 206.111 0.350442 206.81 0.0981278C207.101 0.758027 207.043 1.73817 206.606 2.71832C206.17 3.69846 205.452 4.40688 204.753 4.6592ZM205.432 5.04737C205.684 4.46511 206.364 3.86344 207.286 3.51408C208.208 3.16472 209.13 3.13561 209.741 3.38792C209.489 3.97989 208.809 4.57186 207.887 4.92122C206.965 5.27057 206.044 5.29969 205.432 5.04737ZM202.239 7.66756C201.851 7.06589 201.735 6.08574 202.007 5.05708C202.278 4.02841 202.86 3.21324 203.511 2.86388C203.899 3.46556 204.015 4.4457 203.744 5.47437C203.472 6.50303 202.89 7.3182 202.239 7.67727V7.66756ZM202.948 8.00722C203.093 7.38613 203.666 6.69712 204.51 6.19249C205.355 5.69757 206.267 5.52289 206.907 5.67816C206.762 6.29924 206.199 6.99796 205.345 7.49288C204.501 7.98781 203.598 8.16249 202.948 8.00722ZM200.57 11.2097C200.046 10.705 199.707 9.77342 199.736 8.70593C199.765 7.64815 200.143 6.72623 200.696 6.25072C201.22 6.75535 201.56 7.68697 201.531 8.75446C201.502 9.81224 201.123 10.7342 200.58 11.2097H200.57ZM201.356 11.3261C201.395 10.6953 201.832 9.91898 202.579 9.2979C203.326 8.67682 204.19 8.36628 204.86 8.4148C204.821 9.04559 204.384 9.82194 203.627 10.443C202.88 11.0641 202.016 11.3746 201.347 11.3261H201.356ZM199.668 15.2952C199.076 14.8585 198.62 13.9754 198.503 12.9176C198.387 11.8599 198.639 10.9088 199.115 10.3557C199.707 10.7924 200.163 11.6755 200.279 12.7333C200.396 13.791 200.143 14.7421 199.668 15.2952ZM200.512 15.4311C200.366 14.81 200.561 13.956 201.104 13.1603C201.647 12.3645 202.385 11.8405 203.035 11.7143C203.181 12.3354 202.987 13.1894 202.443 13.9851C201.9 14.7809 201.162 15.3049 200.512 15.4311ZM199.726 19.6816C199.047 19.3808 198.396 18.6141 198.028 17.6146C197.669 16.615 197.688 15.6252 198.028 14.9944C198.707 15.2952 199.357 16.0619 199.726 17.0614C200.085 18.061 200.066 19.0508 199.726 19.6816ZM200.755 19.439C200.463 18.8761 200.444 17.993 200.774 17.1002C201.104 16.2074 201.696 15.5281 202.298 15.2661C202.598 15.8387 202.608 16.7121 202.278 17.6049C201.948 18.4977 201.356 19.177 200.755 19.439ZM201.114 23.7963C200.376 23.6895 199.522 23.1364 198.872 22.2727C198.222 21.409 197.96 20.458 198.096 19.7592C198.833 19.866 199.687 20.4191 200.337 21.2828C200.988 22.1465 201.25 23.0976 201.114 23.7963ZM202.026 23.476C201.609 22.9811 201.385 22.1271 201.492 21.1858C201.609 20.2445 202.026 19.4584 202.55 19.0702C202.967 19.5652 203.19 20.4191 203.084 21.3605C202.967 22.3018 202.55 23.0879 202.026 23.476ZM204.112 26.9405C203.579 26.5523 203.161 25.776 203.045 24.8347C202.928 23.8933 203.142 23.0393 203.569 22.5444C204.103 22.9326 204.52 23.7186 204.636 24.6503C204.753 25.5916 204.539 26.4456 204.112 26.9405ZM203.365 27.4645C202.618 27.5422 201.647 27.2122 200.793 26.5329C199.939 25.8536 199.425 24.9996 199.367 24.2912C200.104 24.2136 201.085 24.5435 201.939 25.2325C202.793 25.9118 203.307 26.7658 203.365 27.4742V27.4645ZM207.363 30.1138C206.694 29.8809 206.005 29.2113 205.568 28.2991C205.131 27.3772 205.063 26.4456 205.325 25.8148C205.995 26.0477 206.684 26.7173 207.121 27.6295C207.557 28.5514 207.625 29.4831 207.363 30.1138ZM206.635 30.7349C205.888 30.9969 204.792 30.9096 203.714 30.4244C202.637 29.9392 201.871 29.1919 201.609 28.4738C202.356 28.2021 203.452 28.2991 204.53 28.7843C205.607 29.2696 206.373 30.0168 206.635 30.7349ZM211.255 32.4526C210.556 32.3362 209.751 31.7927 209.149 30.9581C208.557 30.1236 208.314 29.2113 208.46 28.5514C209.159 28.6679 209.964 29.2113 210.556 30.0459C211.148 30.8805 211.391 31.7927 211.245 32.4526H211.255ZM210.692 33.1901C210.032 33.6074 208.935 33.753 207.771 33.5201C206.606 33.2775 205.684 32.7146 205.257 32.0644C205.917 31.6471 207.014 31.5016 208.179 31.7345C209.343 31.9771 210.265 32.5399 210.692 33.1804V33.1901ZM215.661 33.6462C214.952 33.6462 214.059 33.229 213.332 32.5011C212.604 31.7733 212.216 30.9096 212.235 30.2303C212.943 30.2303 213.836 30.6476 214.564 31.3754C215.292 32.1033 215.68 32.9669 215.661 33.6462ZM215.437 34.4323C214.933 35.0146 213.924 35.461 212.74 35.5483C211.556 35.6357 210.488 35.3542 209.896 34.8496C210.401 34.2673 211.41 33.8209 212.594 33.7336C213.778 33.6462 214.845 33.9277 215.437 34.4323Z" fill="white"></path><path fill-rule="evenodd" clip-rule="evenodd" d="M229.664 2.94152C229.558 2.2428 228.985 1.41793 228.083 0.796845C227.18 0.175763 226.181 -0.0959602 225.453 0.030197C225.559 0.738618 226.132 1.55379 227.035 2.17487C227.937 2.79595 228.937 3.06767 229.664 2.94152ZM232.013 4.6592C232.294 3.9993 232.246 3.01915 231.809 2.03901C231.372 1.06857 230.654 0.350442 229.956 0.0981278C229.664 0.758027 229.723 1.73817 230.159 2.71832C230.596 3.68876 231.314 4.40688 232.013 4.6592ZM231.334 5.04737C231.081 4.46511 230.402 3.86344 229.48 3.51408C228.558 3.16472 227.636 3.13561 227.025 3.38792C227.277 3.97989 227.956 4.57186 228.878 4.92122C229.8 5.27057 230.722 5.29969 231.334 5.04737ZM234.526 7.66756C234.914 7.06589 235.031 6.08574 234.759 5.05708C234.487 4.02841 233.905 3.21324 233.255 2.86388C232.867 3.46556 232.75 4.4457 233.022 5.47437C233.294 6.50303 233.876 7.3182 234.526 7.67727V7.66756ZM233.818 8.00722C233.672 7.38613 233.109 6.69712 232.265 6.19249C231.421 5.69757 230.509 5.52289 229.868 5.67816C230.014 6.29924 230.577 6.99796 231.421 7.49288C232.265 7.98781 233.177 8.16249 233.818 8.00722ZM236.195 11.2097C236.72 10.705 237.059 9.77342 237.03 8.70593C237.001 7.64815 236.622 6.72623 236.069 6.25072C235.545 6.75535 235.206 7.68697 235.235 8.75446C235.264 9.81224 235.642 10.7342 236.195 11.2097ZM235.409 11.3261C235.371 10.6953 234.934 9.91898 234.187 9.2979C233.439 8.67682 232.576 8.36628 231.906 8.4148C231.945 9.04559 232.382 9.82194 233.139 10.443C233.886 11.0641 234.75 11.3746 235.419 11.3261H235.409ZM237.098 15.2952C237.69 14.8585 238.146 13.9754 238.263 12.9176C238.379 11.8599 238.127 10.9088 237.651 10.3557C237.059 10.7924 236.603 11.6755 236.487 12.7333C236.37 13.791 236.622 14.7421 237.098 15.2952ZM236.254 15.4311C236.399 14.81 236.205 13.956 235.662 13.1603C235.128 12.3645 234.381 11.8405 233.731 11.7143C233.585 12.3354 233.779 13.1894 234.323 13.9851C234.856 14.7809 235.603 15.3049 236.254 15.4311ZM237.04 19.6816C237.719 19.3808 238.369 18.6141 238.738 17.6146C239.097 16.615 239.078 15.6252 238.738 14.9944C238.059 15.2952 237.409 16.0619 237.04 17.0614C236.681 18.061 236.7 19.0508 237.04 19.6816ZM236.001 19.439C236.302 18.8761 236.312 17.993 235.982 17.1002C235.652 16.2074 235.06 15.5281 234.458 15.2661C234.158 15.8387 234.148 16.7121 234.478 17.6049C234.808 18.4977 235.4 19.177 236.001 19.439ZM235.642 23.7963C236.38 23.6895 237.234 23.1364 237.884 22.2727C238.534 21.409 238.796 20.458 238.66 19.7592C237.923 19.866 237.069 20.4191 236.419 21.2828C235.768 22.1465 235.506 23.0976 235.642 23.7963ZM234.73 23.476C235.147 22.9811 235.371 22.1271 235.264 21.1858C235.147 20.2445 234.73 19.4584 234.206 19.0702C233.789 19.5652 233.566 20.4191 233.672 21.3605C233.789 22.3018 234.206 23.0879 234.73 23.476ZM232.644 26.9405C233.177 26.5523 233.595 25.776 233.711 24.8347C233.828 23.8933 233.614 23.0393 233.187 22.5444C232.663 22.9326 232.236 23.7186 232.12 24.6503C232.003 25.5916 232.217 26.4456 232.644 26.9405ZM233.391 27.4645C234.128 27.5422 235.109 27.2122 235.963 26.5329C236.817 25.8536 237.331 24.9996 237.389 24.2912C236.652 24.2136 235.671 24.5435 234.817 25.2325C233.963 25.9118 233.449 26.7658 233.391 27.4742V27.4645ZM229.393 30.1138C230.062 29.8809 230.751 29.2113 231.188 28.2991C231.625 27.3772 231.693 26.4456 231.431 25.8148C230.761 26.0477 230.072 26.7173 229.635 27.6295C229.199 28.5514 229.131 29.4831 229.393 30.1138ZM230.121 30.7349C230.868 30.9969 231.964 30.9096 233.042 30.4244C234.119 29.9392 234.885 29.1919 235.147 28.4738C234.4 28.2021 233.304 28.2991 232.226 28.7843C231.149 29.2696 230.383 30.0168 230.121 30.7349ZM225.501 32.4526C226.2 32.3362 227.005 31.7927 227.597 30.9581C228.199 30.1236 228.432 29.2113 228.286 28.5514C227.588 28.6679 226.782 29.2113 226.19 30.0459C225.598 30.8805 225.356 31.7927 225.501 32.4526ZM226.064 33.1901C226.724 33.6074 227.821 33.753 228.985 33.5201C230.15 33.2775 231.081 32.7146 231.499 32.0644C230.839 31.6471 229.742 31.5016 228.578 31.7345C227.413 31.9771 226.491 32.5399 226.064 33.1804V33.1901ZM221.095 33.6462C221.804 33.6462 222.697 33.229 223.424 32.5011C224.152 31.7733 224.54 30.9096 224.521 30.2303C223.813 30.2303 222.92 30.6476 222.192 31.3754C221.464 32.1033 221.076 32.9669 221.095 33.6462ZM221.319 34.4323C221.823 35.0146 222.833 35.461 224.016 35.5483C225.2 35.6357 226.268 35.3542 226.86 34.8496C226.355 34.2673 225.346 33.8209 224.162 33.7336C222.978 33.6462 221.911 33.9277 221.319 34.4323Z" fill="white"></path><path d="M217.476 12.7298C217.573 12.5842 217.757 12.5454 217.903 12.6424C218.049 12.7395 218.087 12.9239 217.99 13.0694L217.476 12.7298ZM217.99 13.0694L217.651 13.5935L217.136 13.2538L217.476 12.7298L217.99 13.0694ZM217.136 13.2538C217.233 13.1083 217.418 13.0694 217.563 13.1665C217.709 13.2635 217.748 13.4479 217.651 13.5935L217.136 13.2538ZM217.651 13.5935L214.73 18.0575L214.215 17.7178L217.136 13.2538L217.651 13.5935ZM214.254 18.106C214.138 17.9896 214.128 17.7955 214.254 17.6693C214.371 17.5529 214.574 17.5529 214.691 17.6693L214.254 18.106ZM214.691 17.6693L218.553 21.4832L218.116 21.9199L214.254 18.106L214.215 17.7178L214.691 17.6693ZM218.553 21.9199C218.437 22.0363 218.233 22.0363 218.116 21.9199C218 21.8034 218 21.5996 218.116 21.4832L218.553 21.9199ZM218.116 21.4832L221.979 17.6693L222.416 18.106L218.553 21.9199H218.116V21.4832ZM222.454 17.7178C222.551 17.8634 222.503 18.0478 222.367 18.1448C222.221 18.2419 222.027 18.1934 221.94 18.0575L222.454 17.7178ZM221.94 18.0575L218.078 12.1572L218.592 11.8176L222.454 17.7178L222.416 18.106L221.94 18.0575ZM218.078 12.1572C217.981 12.0117 218.029 11.8273 218.165 11.7302C218.311 11.6429 218.505 11.6817 218.592 11.8176L218.078 12.1572Z" fill="white"></path><path d="M215.39 16.508C215.273 16.3916 215.264 16.1975 215.39 16.0713C215.506 15.9549 215.71 15.9549 215.826 16.0713L215.39 16.508ZM215.826 16.0713L218.553 18.7691L218.117 19.2058L215.39 16.508L215.826 16.0713ZM218.553 19.2058C218.437 19.3223 218.233 19.3223 218.117 19.2058C218 19.0894 218 18.8953 218.117 18.7691L218.553 19.2058ZM218.117 18.7691L221.979 14.9553L222.416 15.392L218.553 19.2058H218.117V18.7691ZM222.474 15.0329C222.552 15.1882 222.484 15.3726 222.328 15.4405C222.173 15.5182 221.989 15.4405 221.921 15.295L222.474 15.0232V15.0329ZM221.921 15.3047L221.135 13.6937L221.688 13.422L222.474 15.0329L222.416 15.3823L221.921 15.295V15.3047ZM221.135 13.6937C221.057 13.5385 221.125 13.3541 221.28 13.2861C221.436 13.2085 221.62 13.2764 221.698 13.4317L221.144 13.7034L221.135 13.6937ZM221.164 12.3448C221.241 12.5001 221.174 12.6845 221.018 12.7524C220.863 12.83 220.679 12.7621 220.601 12.6068L221.154 12.3351L221.164 12.3448ZM220.611 12.6165L218.058 7.40528L218.612 7.13356L221.164 12.3448L220.611 12.6165ZM218.058 7.13356C218.136 6.97829 218.32 6.92006 218.476 6.98799C218.631 7.06563 218.689 7.25001 218.621 7.39558L218.068 7.12385L218.058 7.13356ZM218.612 7.40528L214.749 15.3047L214.196 15.0329L218.058 7.13356H218.612V7.40528ZM214.254 15.392C214.138 15.2756 214.138 15.0815 214.254 14.9553C214.371 14.8389 214.575 14.8389 214.691 14.9553L214.254 15.392ZM214.691 14.9553L215.128 15.3823L214.691 15.819L214.254 15.392L214.196 15.0426L214.691 14.965V14.9553ZM215.128 15.3823C215.244 15.4988 215.244 15.6928 215.128 15.819C215.011 15.9354 214.807 15.9354 214.691 15.819L215.128 15.3823Z" fill="white"></path><path d="M220.416 14.8884C220.3 15.0048 220.096 15.0048 219.98 14.8884C219.863 14.7719 219.863 14.5681 219.98 14.4517L220.416 14.8884ZM219.98 14.4517L221.154 13.2871L221.591 13.7238L220.407 14.8884L219.97 14.4517H219.98ZM221.6 13.7238C221.484 13.8403 221.28 13.8403 221.164 13.7238C221.047 13.6074 221.047 13.4133 221.164 13.2871L221.6 13.7238ZM221.164 13.2871L221.979 12.4817L222.416 12.9184L221.6 13.7238L221.164 13.2871ZM222.493 12.5981C222.551 12.7534 222.464 12.9378 222.309 12.9863C222.144 13.0445 221.969 12.9572 221.911 12.8019L222.493 12.5981ZM221.911 12.8019L218.049 2.05915L218.631 1.85536L222.493 12.5981L222.416 12.9184L221.911 12.8019ZM218.049 1.85536C218.107 1.70009 218.281 1.61275 218.446 1.67098C218.611 1.7292 218.689 1.90388 218.631 2.05915L218.049 1.85536ZM218.631 2.05915L214.768 12.8019L214.186 12.5981L218.049 1.85536H218.631V2.05915ZM214.254 12.9184C214.138 12.8019 214.128 12.6078 214.254 12.4817C214.371 12.3652 214.565 12.3652 214.691 12.4817L214.254 12.9184ZM214.691 12.4817L218.553 16.2955L218.116 16.7322L214.254 12.9184L214.176 12.5981L214.681 12.4817H214.691ZM218.553 16.7322C218.437 16.8487 218.233 16.8487 218.116 16.7322C218 16.6158 218 16.412 218.116 16.2955L218.553 16.7322ZM218.116 16.2955L219.174 15.2571L219.611 15.6938L218.553 16.7322H218.116V16.2955ZM219.174 15.2571C219.291 15.1407 219.494 15.1407 219.611 15.2571C219.727 15.3736 219.727 15.5677 219.611 15.6938L219.174 15.2571Z" fill="white"></path><path d="M212.759 16.1067L212.216 16.3881C212.138 16.2426 212.196 16.0582 212.342 15.9708C212.488 15.8932 212.672 15.9514 212.75 16.097M212.206 16.3784L212.75 16.097L213.594 17.7273L213.05 18.0088L212.206 16.3784ZM213.555 18.067L213.089 17.6788C213.196 17.543 213.39 17.5333 213.516 17.64C213.642 17.7468 213.662 17.9408 213.555 18.0767V18.067ZM213.089 17.6788L213.594 17.7273L213.555 18.067L210.401 21.8808L209.935 21.4927L213.089 17.6788ZM209.935 21.8905L210.401 21.5024C210.508 21.6285 210.488 21.8226 210.362 21.9294C210.236 22.0361 210.042 22.0167 209.935 21.8905ZM210.401 21.5024V21.8905H209.935L206.781 18.0767L207.247 17.6885L210.401 21.5024ZM206.752 17.7371L207.286 18.0282C207.208 18.1737 207.024 18.232 206.878 18.1543C206.733 18.0767 206.675 17.8826 206.752 17.7371ZM207.286 18.0282L206.781 18.0767L206.743 17.7371L209.896 11.8368L210.43 12.1279L207.276 18.0282H207.286ZM210.44 11.8368L209.906 12.1376C209.829 11.992 209.877 11.798 210.023 11.7203C210.168 11.6427 210.353 11.6912 210.44 11.8368ZM209.906 12.1376V11.8465H210.44L212.235 15.1169L211.702 15.4177L209.906 12.1473V12.1376ZM211.702 15.408L212.235 15.1072C212.313 15.2527 212.264 15.4468 212.119 15.5244C211.973 15.6021 211.789 15.5536 211.702 15.408Z" fill="white"></path><path d="M207.664 16.4186L208.13 16.0304C208.237 16.1566 208.218 16.3507 208.091 16.4574C207.965 16.5642 207.771 16.5448 207.664 16.4186ZM208.13 16.0304L207.664 16.4186L206.801 15.3705L207.267 14.9823L208.13 16.0304ZM206.742 15.06L207.305 15.2929C207.237 15.4482 207.063 15.5258 206.907 15.4676C206.752 15.4093 206.675 15.225 206.742 15.0697V15.06ZM207.305 15.2929L206.791 15.3705L206.742 15.06L209.896 7.1606L210.459 7.39351L207.305 15.2929ZM210.459 7.1606L209.896 7.39351C209.838 7.23824 209.906 7.05385 210.071 6.99563C210.226 6.9374 210.401 7.00533 210.469 7.1703L210.459 7.1606ZM209.896 7.39351V7.1606H210.459L213.613 15.06L213.05 15.2929L209.896 7.39351ZM213.565 15.3802L213.099 14.9921C213.206 14.8659 213.4 14.8465 213.526 14.9532C213.652 15.06 213.671 15.2541 213.565 15.3802ZM213.099 14.9921L213.613 15.0697L213.565 15.3802L210.411 19.1941L209.945 18.8059L213.099 14.9921ZM209.945 19.2038L210.411 18.8156C210.518 18.9417 210.498 19.1358 210.372 19.2426C210.246 19.3493 210.052 19.3299 209.945 19.2038ZM210.411 18.8156V19.2038H209.945L208.363 17.3017L208.829 16.9135L210.411 18.8156ZM208.829 16.9135L208.363 17.3017C208.256 17.1755 208.276 16.9815 208.402 16.8747C208.528 16.768 208.722 16.7874 208.829 16.9135Z" fill="white"></path><path d="M225.511 20.8906L225.977 20.5025C226.083 20.6286 226.064 20.8227 225.938 20.9295C225.812 21.0362 225.618 21.0168 225.511 20.8906ZM225.977 20.5025L225.511 20.8906L223.182 18.0764L223.648 17.6882L225.977 20.5025ZM223.143 17.7367L223.677 18.0278C223.599 18.1734 223.415 18.2316 223.269 18.154C223.123 18.0764 223.065 17.892 223.143 17.7367ZM223.677 18.0278L223.172 18.0764L223.133 17.7367L226.287 11.8364L226.821 12.1276L223.667 18.0278H223.677ZM226.831 11.8364L226.297 12.1276C226.219 11.982 226.277 11.7879 226.423 11.7103C226.569 11.6326 226.753 11.6909 226.84 11.8364H226.831ZM226.297 12.1276V11.8364H226.831L229.985 17.7367L229.451 18.0278L226.297 12.1276ZM229.955 18.0764L229.49 17.6882C229.596 17.562 229.79 17.5426 229.917 17.6494C230.043 17.7561 230.062 17.9502 229.955 18.0764ZM229.49 17.6882L229.994 17.7367L229.955 18.0764L226.801 21.8902L226.336 21.502L229.49 17.6882ZM226.336 21.502L226.801 21.8902C226.695 22.0164 226.501 22.0358 226.374 21.929C226.248 21.8223 226.229 21.6282 226.336 21.502Z" fill="white"></path><path d="M228.383 17.2726L227.917 16.8844C228.024 16.7583 228.218 16.7388 228.344 16.8456C228.471 16.9523 228.49 17.1464 228.383 17.2726ZM227.917 16.8844L228.383 17.2726L226.801 19.1844L226.336 18.7962L227.908 16.8844H227.917ZM226.345 19.1844L226.811 18.7962C226.918 18.9223 226.898 19.1164 226.772 19.2232C226.646 19.3299 226.452 19.3105 226.345 19.1844ZM226.811 18.7962V19.1844H226.345L223.191 15.3705L223.657 14.9823L226.811 18.7962ZM223.143 15.06L223.706 15.2929C223.638 15.4482 223.463 15.5258 223.308 15.4676C223.153 15.4093 223.075 15.225 223.143 15.0697V15.06ZM223.706 15.2929L223.191 15.3705L223.143 15.06L226.297 7.1606L226.86 7.39351L223.706 15.2929ZM226.86 7.1606L226.297 7.39351C226.229 7.23824 226.307 7.05385 226.462 6.99563C226.617 6.9374 226.792 7.00533 226.86 7.1703V7.1606ZM226.297 7.39351V7.1606H226.86L230.014 15.06L229.451 15.2929L226.297 7.39351ZM229.965 15.3802L229.499 14.9921C229.606 14.8659 229.8 14.8465 229.926 14.9532C230.052 15.06 230.072 15.2541 229.965 15.3802ZM229.499 14.9921L230.014 15.0697L229.965 15.3802L229.111 16.4089L228.645 16.0207L229.499 14.9921ZM228.645 16.0207L229.111 16.4089C229.004 16.5351 228.81 16.5545 228.684 16.4477C228.558 16.341 228.539 16.1469 228.645 16.0207Z" fill="white"></path><path d="M207.218 25.3655C209.469 24.5989 213.603 24.0942 218.329 24.0942C223.055 24.0942 227.199 24.6086 229.441 25.3655" stroke="white" stroke-width="0.611377" stroke-linecap="round" stroke-linejoin="round"></path><path d="M218.611 23.988C218.611 24.1627 218.475 24.2986 218.301 24.2986C218.126 24.2986 217.99 24.1627 217.99 23.988H218.611ZM217.99 23.988V21.6299H218.611V23.988H217.99ZM217.99 21.6299C217.99 21.4552 218.126 21.3193 218.301 21.3193C218.475 21.3193 218.611 21.4552 218.611 21.6299H217.99Z" fill="white"></path><path d="M226.831 24.6507C226.831 24.8157 226.695 24.9612 226.52 24.9612C226.346 24.9612 226.21 24.8254 226.21 24.6507H226.831ZM226.21 24.6507V21.7588H226.831V24.6507H226.21ZM226.21 21.7588C226.21 21.5841 226.346 21.4482 226.52 21.4482C226.695 21.4482 226.831 21.5841 226.831 21.7588H226.21Z" fill="white"></path><path d="M210.488 24.6507C210.488 24.8157 210.352 24.9612 210.178 24.9612C210.003 24.9612 209.867 24.8254 209.867 24.6507H210.488ZM209.867 24.6507V21.7588H210.488V24.6507H209.867ZM209.867 21.7588C209.867 21.5841 210.003 21.4482 210.178 21.4482C210.352 21.4482 210.488 21.5841 210.488 21.7588H209.867Z" fill="white"></path><path d="M191.274 27.8105H182.938V33.701H192.933V37.9225H177.455V14.2728H192.953V18.4942H182.947V23.5793H191.283V27.8008L191.274 27.8105ZM176.115 18.5039H169.856V37.9322H164.363V18.5039H158.221V14.2825H176.106V18.5039H176.115ZM145.634 24.6468H148.409C149.516 24.6468 150.36 24.3945 150.942 23.8899C151.525 23.3853 151.816 22.6671 151.816 21.7258C151.816 20.7845 151.515 19.9887 150.913 19.3967C150.311 18.8048 149.457 18.5039 148.371 18.5039H145.624V24.6468H145.634ZM145.634 28.8682V37.9322H140.141V14.2728H148.38C151.117 14.2728 153.291 14.9133 154.892 16.1749C156.493 17.4462 157.299 19.1735 157.299 21.3764C157.299 22.5992 156.969 23.6473 156.328 24.5304C155.688 25.4038 154.737 26.1219 153.475 26.675C154.931 27.0826 155.969 27.7716 156.6 28.7324C157.231 29.6931 157.551 30.8868 157.551 32.3133V33.8078C157.551 34.4192 157.648 35.1276 157.832 35.9233C158.017 36.7094 158.337 37.282 158.793 37.6119V37.9419H153.126C152.689 37.6022 152.408 37.0199 152.281 36.1757C152.155 35.3314 152.087 34.5356 152.087 33.7884V32.3618C152.087 31.2361 151.787 30.3724 151.195 29.7805C150.603 29.1885 149.729 28.8877 148.574 28.8877H145.634V28.8682ZM132.213 23.9481C132.213 22.2595 131.815 20.8718 131.019 19.7849C130.223 18.698 129.098 18.1643 127.652 18.1643C126.206 18.1643 125.032 18.698 124.245 19.7752C123.469 20.8524 123.071 22.2401 123.071 23.9481V28.2375C123.071 29.9551 123.469 31.3429 124.265 32.4298C125.061 33.5069 126.206 34.0504 127.681 34.0504C129.156 34.0504 130.233 33.5069 131.029 32.4298C131.815 31.3429 132.213 29.9551 132.213 28.2375V23.9481ZM137.696 28.2375C137.696 31.1488 136.774 33.5458 134.92 35.4381C133.076 37.3305 130.66 38.2718 127.681 38.2815C124.682 38.2815 122.256 37.3305 120.393 35.4381C118.53 33.5458 117.598 31.1488 117.598 28.2375V23.9772C117.598 21.0756 118.52 18.6786 120.383 16.7863C122.237 14.8939 124.663 13.9429 127.652 13.9429C130.641 13.9429 133.038 14.8939 134.901 16.7863C136.764 18.6786 137.696 21.0756 137.696 23.9772V28.2375ZM103.206 25.6076H106.748C107.942 25.6076 108.854 25.2776 109.475 24.6274C110.096 23.9772 110.417 23.1329 110.417 22.1043C110.417 21.0756 110.106 20.1925 109.475 19.5229C108.854 18.8533 107.942 18.5136 106.739 18.5136H103.197V25.6076H103.206ZM103.206 29.829V37.9322H97.7136V14.2728H106.748C109.553 14.2728 111.775 14.9909 113.425 16.4175C115.075 17.844 115.89 19.7267 115.89 22.0558C115.89 24.3848 115.065 26.2578 113.425 27.6843C111.775 29.1109 109.553 29.8193 106.748 29.8193H103.206V29.829ZM83.9819 29.1109H88.4847L86.2721 21.7646H86.1751L83.9819 29.1109ZM89.7463 33.3323H82.7203L81.352 37.9322H75.5682L83.2832 14.2825H86.2236V14.3019L86.243 14.2825H89.1835L96.9179 37.9322H91.134L89.756 33.3323H89.7463ZM69.7844 31.6534C69.7844 30.8091 69.5029 30.1589 68.9595 29.7125C68.4063 29.2661 67.3971 28.7906 65.9511 28.2763C63.0107 27.3252 60.8369 26.3063 59.4103 25.2291C57.9935 24.1519 57.2754 22.5992 57.2754 20.5807C57.2754 18.5622 58.11 16.9998 59.7597 15.777C61.4192 14.5542 63.525 13.9429 66.0773 13.9429C68.7751 13.9429 70.9489 14.5737 72.5889 15.8352C74.2387 17.0968 75.0247 18.8727 74.9762 21.1727L74.9374 21.2697H69.6097C69.6097 20.1537 69.3088 19.3482 68.6975 18.8436C68.0861 18.339 67.1739 18.0867 65.9511 18.0867C64.9516 18.0867 64.1655 18.3293 63.5929 18.8145C63.0204 19.2997 62.7293 19.9014 62.7293 20.6195C62.7293 21.3376 63.0204 21.8617 63.6124 22.279C64.2043 22.6962 65.3009 23.2203 66.9118 23.8511C69.6485 24.6565 71.7252 25.6561 73.1324 26.8206C74.5395 27.9948 75.2479 29.5961 75.2479 31.6243C75.2479 33.6525 74.4328 35.3314 72.8121 36.5056C71.1818 37.6798 69.0274 38.2621 66.349 38.2718C63.6706 38.2718 61.4095 37.641 59.5559 36.3795C57.7024 35.1179 56.7999 33.1382 56.8484 30.4209L56.8775 30.3239H62.2246C62.2246 31.7019 62.5643 32.6724 63.2436 33.2546C63.9229 33.8369 64.9613 34.1183 66.3587 34.1183C67.5038 34.1183 68.3578 33.8854 68.9304 33.439C69.4932 32.9829 69.7746 32.3909 69.7746 31.6534H69.7844ZM49.9971 31.6534C49.9971 30.8091 49.7156 30.1589 49.1722 29.7125C48.619 29.2661 47.6098 28.7906 46.1638 28.2763C43.2234 27.3252 41.0496 26.3063 39.6231 25.2291C38.2062 24.1519 37.4881 22.5992 37.4881 20.5807C37.4881 18.5622 38.3227 16.9998 39.9724 15.777C41.6319 14.5542 43.7377 13.9429 46.29 13.9429C48.9878 13.9429 51.1616 14.5737 52.8016 15.8352C54.4514 17.0968 55.2375 18.8727 55.1889 21.1727L55.1598 21.2697H49.8321C49.8321 20.1537 49.5313 19.3482 48.9199 18.8436C48.3085 18.339 47.3963 18.0867 46.1735 18.0867C45.174 18.0867 44.3879 18.3293 43.8154 18.8145C43.2331 19.2997 42.9517 19.9014 42.9517 20.6195C42.9517 21.3376 43.2428 21.8617 43.8348 22.279C44.4267 22.6962 45.5233 23.2203 47.144 23.8511C49.8806 24.6565 51.9574 25.6561 53.3645 26.8206C54.7716 27.9948 55.4801 29.5961 55.4801 31.6243C55.4801 33.6525 54.6746 35.3314 53.0443 36.5056C51.4236 37.6798 49.2595 38.2621 46.5811 38.2718C43.9027 38.2718 41.6416 37.641 39.7783 36.3795C37.9248 35.1179 37.0126 33.1382 37.0708 30.4209L37.1096 30.3239H42.4568C42.4568 31.7019 42.7964 32.6724 43.466 33.2546C44.1453 33.8369 45.1837 34.1183 46.5811 34.1183C47.7262 34.1183 48.5802 33.8854 49.1431 33.439C49.7059 32.9829 49.9874 32.3909 49.9874 31.6534H49.9971ZM24.0669 29.1011H28.5698L26.3572 21.7549H26.2601L24.0669 29.1011ZM29.8313 33.3226H22.8053L21.437 37.9225H15.6532L23.3682 14.2728H26.3086V14.2922L26.328 14.2728H29.2685L37.0029 37.9225H31.2191L29.841 33.3226H29.8313ZM5.5121 25.5882H9.05421C10.2478 25.5882 11.1601 25.2582 11.7811 24.608C12.4119 23.9578 12.7225 23.1135 12.7225 22.0849C12.7225 21.0562 12.4119 20.1731 11.7811 19.5035C11.1601 18.8339 10.2478 18.4942 9.0445 18.4942H5.5024V25.5882H5.5121ZM5.5121 29.8096V37.9127H0V14.2728H9.0348C11.8394 14.2728 14.0617 14.9909 15.7114 16.4175C17.3612 17.844 18.1763 19.7267 18.1763 22.0558C18.1763 24.3848 17.3515 26.2578 15.7114 27.6843C14.0617 29.1109 11.8394 29.8193 9.0348 29.8193H5.49269L5.5121 29.8096Z" fill="white"></path><path d="M224.278 57.3643C224.278 56.52 223.997 55.8698 223.453 55.4234C222.9 54.977 221.891 54.5015 220.445 53.9872C217.504 53.0361 215.331 52.0172 213.904 50.94C212.487 49.8628 211.769 48.3101 211.769 46.2916C211.769 44.273 212.604 42.7106 214.253 41.4879C215.913 40.2651 218.019 39.6537 220.571 39.6537C223.269 39.6537 225.443 40.2845 227.083 41.5461C228.732 42.8077 229.518 44.5836 229.47 46.8835L229.441 46.9806H224.113C224.113 45.8646 223.812 45.0591 223.201 44.5545C222.589 44.0498 221.677 43.7975 220.455 43.7975C219.455 43.7975 218.669 44.0401 218.096 44.5254C217.524 45.0106 217.242 45.6123 217.242 46.3304C217.242 47.0485 217.533 47.5822 218.125 47.9898C218.717 48.4071 219.814 48.9312 221.425 49.5619C224.162 50.3674 226.238 51.367 227.645 52.5315C229.053 53.7057 229.761 55.307 229.761 57.3352C229.761 59.3634 228.946 61.0423 227.325 62.2165C225.705 63.3907 223.541 63.973 220.862 63.9827C218.184 63.9827 215.923 63.3519 214.059 62.0903C212.206 60.8288 211.294 58.8491 211.352 56.1318L211.381 56.0348H216.728C216.728 57.4128 217.068 58.3832 217.747 58.9655C218.426 59.5381 219.455 59.8292 220.852 59.8292C221.998 59.8292 222.851 59.606 223.424 59.1499C223.987 58.6938 224.268 58.1018 224.268 57.3643M204.132 49.6493C204.132 47.9607 203.744 46.573 202.938 45.4861C202.142 44.3992 201.017 43.8655 199.571 43.8655C198.125 43.8655 196.95 44.3992 196.164 45.4764C195.378 46.5536 194.99 47.9413 194.99 49.6493V53.9386C194.99 55.6466 195.388 57.044 196.184 58.1309C196.98 59.2081 198.125 59.7516 199.609 59.7516C201.094 59.7516 202.162 59.2081 202.957 58.1309C203.744 57.044 204.141 55.6563 204.141 53.9386V49.6493H204.132ZM209.615 53.9386C209.615 56.85 208.693 59.2469 206.839 61.1393C204.995 63.0317 202.579 63.973 199.6 63.9827C196.601 63.9827 194.175 63.0317 192.312 61.1393C190.449 59.2469 189.517 56.85 189.517 53.9386V49.6784C189.517 46.7768 190.439 44.3798 192.302 42.4874C194.156 40.5951 196.582 39.644 199.571 39.644C202.56 39.644 204.957 40.5951 206.82 42.4874C208.683 44.3798 209.615 46.7768 209.615 49.6784V53.9386ZM175.125 50.348H177.901C179.007 50.348 179.851 50.0957 180.434 49.5911C181.026 49.0864 181.307 48.3683 181.307 47.427C181.307 46.4856 181.006 45.6899 180.404 45.0979C179.803 44.506 178.949 44.2051 177.862 44.2051H175.116V50.348H175.125ZM175.125 54.5694V63.6333H169.633V39.9837H177.872C180.608 39.9837 182.782 40.6242 184.383 41.8858C185.984 43.157 186.79 44.8844 186.79 47.0873C186.79 48.3101 186.46 49.3582 185.819 50.2413C185.179 51.1146 184.228 51.8328 182.966 52.3859C184.422 52.7935 185.46 53.4728 186.091 54.4336C186.722 55.3943 187.042 56.5879 187.042 58.0145V59.509C187.042 60.1203 187.139 60.8288 187.324 61.6245C187.508 62.4106 187.828 62.9734 188.284 63.3131V63.643H182.617C182.18 63.3034 181.899 62.7211 181.773 61.8768C181.647 61.0325 181.579 60.2368 181.579 59.4895V58.063C181.579 56.9373 181.278 56.0833 180.686 55.4816C180.094 54.8897 179.221 54.5888 178.066 54.5888H175.125V54.5694ZM166.42 63.6333H160.937V39.9837H166.42V63.6333ZM156.745 53.5116H148.409V59.4022H158.395V63.6236H142.916V39.974H158.414V44.1954H148.409V49.2805H156.745V53.5019V53.5116ZM140.044 63.6333H134.571V54.1133H125.817V63.6333H120.324V39.9837H125.817V49.8919H134.571V39.9837H140.044V63.6333ZM117.442 63.6333H111.959L103.303 48.7565L103.206 48.7856V63.6333H97.7132V39.9837H103.206L111.872 54.8508L111.969 54.8217V39.9934H117.452V63.643L117.442 63.6333ZM94.5011 63.6333H89.0181V39.9837H94.5011V63.6333ZM73.8501 51.299H77.3922C78.5859 51.299 79.4981 50.9691 80.1192 50.3189C80.7499 49.6687 81.0605 48.8244 81.0605 47.7957C81.0605 46.7671 80.7499 45.884 80.1192 45.2144C79.4981 44.5448 78.5859 44.2051 77.3825 44.2051H73.8404V51.299H73.8501ZM73.8501 55.5204V63.6236H68.3574V39.974H77.3922C80.1968 39.974 82.4191 40.6921 84.0688 42.1187C85.7186 43.5452 86.5338 45.4279 86.5338 47.7569C86.5338 50.086 85.7089 51.9589 84.0688 53.3855C82.4191 54.812 80.1968 55.5204 77.3922 55.5204H73.8501Z" fill="white"></path></g><defs><clipPath id="clip0_350_13"><rect width="239" height="63.9811" fill="white"></rect></clipPath></defs></svg>