<svg xmlns="http://www.w3.org/2000/svg" width="239" height="64" viewBox="0 0 239 64" fill="none"><g clip-path="url(#clip0_0_3)"><mask id="mask0_0_3" style="mask-type:luminance" maskUnits="userSpaceOnUse" x="0" y="0" width="239" height="64"><path d="M239 0H0V63.9811H239V0Z" fill="white"></path></mask><g mask="url(#mask0_0_3)"><path fill-rule="evenodd" clip-rule="evenodd" d="M207.092 2.94176C207.198 2.24304 207.771 1.41817 208.673 0.797089C209.576 0.176007 210.575 -0.0957161 211.303 0.0304411C211.197 0.738863 210.624 1.55403 209.722 2.17511C208.819 2.7962 207.819 3.06792 207.092 2.94176ZM204.753 4.65944C204.462 3.99954 204.52 3.0194 204.957 2.03925C205.393 1.06881 206.111 0.350686 206.81 0.098372C207.101 0.758271 207.043 1.73842 206.606 2.71856C206.17 3.69871 205.452 4.40713 204.753 4.65944ZM205.432 5.04762C205.684 4.46535 206.364 3.86368 207.286 3.51432C208.208 3.16496 209.13 3.13585 209.741 3.38816C209.489 3.98013 208.809 4.5721 207.887 4.92146C206.965 5.27082 206.044 5.29993 205.432 5.04762ZM202.239 7.66781C201.851 7.06613 201.735 6.08599 202.007 5.05732C202.278 4.02866 202.86 3.21349 203.511 2.86413C203.899 3.4658 204.015 4.44594 203.744 5.47461C203.472 6.50328 202.89 7.31845 202.239 7.67751V7.66781ZM202.948 8.00746C203.093 7.38638 203.666 6.69737 204.51 6.19274C205.355 5.69781 206.267 5.52313 206.907 5.6784C206.762 6.29949 206.199 6.9982 205.345 7.49313C204.501 7.98805 203.598 8.16273 202.948 8.00746ZM200.57 11.2099C200.046 10.7053 199.707 9.77366 199.736 8.70618C199.765 7.6484 200.143 6.72648 200.696 6.25096C201.22 6.75559 201.56 7.68722 201.531 8.7547C201.502 9.81248 201.123 10.7344 200.58 11.2099H200.57ZM201.356 11.3264C201.395 10.6956 201.832 9.91923 202.579 9.29815C203.326 8.67706 204.19 8.36652 204.86 8.41504C204.821 9.04583 204.384 9.82218 203.627 10.4433C202.88 11.0643 202.016 11.3749 201.347 11.3264H201.356ZM199.668 15.2955C199.076 14.8588 198.62 13.9757 198.503 12.9179C198.387 11.8601 198.639 10.9091 199.115 10.3559C199.707 10.7926 200.163 11.6757 200.279 12.7335C200.396 13.7913 200.143 14.7423 199.668 15.2955ZM200.512 15.4313C200.366 14.8102 200.561 13.9563 201.104 13.1605C201.647 12.3647 202.385 11.8407 203.035 11.7145C203.181 12.3356 202.987 13.1896 202.443 13.9854C201.9 14.7811 201.162 15.3052 200.512 15.4313ZM199.726 19.6819C199.047 19.381 198.396 18.6144 198.028 17.6148C197.669 16.6153 197.688 15.6254 198.028 14.9946C198.707 15.2955 199.357 16.0621 199.726 17.0617C200.085 18.0612 200.066 19.0511 199.726 19.6819ZM200.755 19.4392C200.463 18.8764 200.444 17.9933 200.774 17.1005C201.104 16.2077 201.696 15.5284 202.298 15.2664C202.598 15.8389 202.608 16.7123 202.278 17.6051C201.948 18.4979 201.356 19.1772 200.755 19.4392ZM201.114 23.7965C200.376 23.6898 199.522 23.1366 198.872 22.2729C198.222 21.4092 197.96 20.4582 198.096 19.7595C198.833 19.8662 199.687 20.4194 200.337 21.2831C200.988 22.1468 201.25 23.0978 201.114 23.7965ZM202.026 23.4763C201.609 22.9814 201.385 22.1274 201.492 21.186C201.609 20.2447 202.026 19.4587 202.55 19.0705C202.967 19.5654 203.19 20.4194 203.084 21.3607C202.967 22.302 202.55 23.0881 202.026 23.4763ZM204.112 26.9408C203.579 26.5526 203.161 25.7762 203.045 24.8349C202.928 23.8936 203.142 23.0396 203.569 22.5447C204.103 22.9328 204.52 23.7189 204.636 24.6505C204.753 25.5918 204.539 26.4458 204.112 26.9408ZM203.365 27.4648C202.618 27.5424 201.647 27.2125 200.793 26.5332C199.939 25.8539 199.425 24.9999 199.367 24.2914C200.104 24.2138 201.085 24.5438 201.939 25.2328C202.793 25.9121 203.307 26.7661 203.365 27.4745V27.4648ZM207.363 30.1141C206.694 29.8812 206.005 29.2116 205.568 28.2994C205.131 27.3774 205.063 26.4458 205.325 25.815C205.995 26.0479 206.684 26.7175 207.121 27.6298C207.557 28.5517 207.625 29.4833 207.363 30.1141ZM206.635 30.7352C205.888 30.9972 204.792 30.9099 203.714 30.4246C202.637 29.9394 201.871 29.1922 201.609 28.474C202.356 28.2023 203.452 28.2994 204.53 28.7846C205.607 29.2698 206.373 30.017 206.635 30.7352ZM211.255 32.4529C210.556 32.3364 209.751 31.793 209.149 30.9584C208.557 30.1238 208.314 29.2116 208.46 28.5517C209.159 28.6681 209.964 29.2116 210.556 30.0462C211.148 30.8807 211.391 31.793 211.245 32.4529H211.255ZM210.692 33.1904C210.032 33.6077 208.935 33.7532 207.771 33.5203C206.606 33.2777 205.684 32.7149 205.257 32.0647C205.917 31.6474 207.014 31.5018 208.179 31.7347C209.343 31.9773 210.265 32.5402 210.692 33.1807V33.1904ZM215.661 33.6465C214.952 33.6465 214.059 33.2292 213.332 32.5014C212.604 31.7735 212.216 30.9099 212.235 30.2305C212.943 30.2305 213.836 30.6478 214.564 31.3757C215.292 32.1035 215.68 32.9672 215.661 33.6465ZM215.437 34.4325C214.933 35.0148 213.924 35.4612 212.74 35.5486C211.556 35.6359 210.488 35.3545 209.896 34.8498C210.401 34.2676 211.41 33.8212 212.594 33.7338C213.778 33.6465 214.845 33.9279 215.437 34.4325Z" fill="#353535"></path><path fill-rule="evenodd" clip-rule="evenodd" d="M229.664 2.94176C229.558 2.24304 228.985 1.41817 228.083 0.797089C227.18 0.176007 226.181 -0.0957161 225.453 0.0304411C225.559 0.738863 226.132 1.55403 227.035 2.17511C227.937 2.7962 228.937 3.06792 229.664 2.94176ZM232.013 4.65944C232.294 3.99954 232.246 3.0194 231.809 2.03925C231.372 1.06881 230.654 0.350686 229.956 0.098372C229.664 0.758271 229.723 1.73842 230.159 2.71856C230.596 3.689 231.314 4.40713 232.013 4.65944ZM231.334 5.04762C231.081 4.46535 230.402 3.86368 229.48 3.51432C228.558 3.16496 227.636 3.13585 227.025 3.38816C227.277 3.98013 227.956 4.5721 228.878 4.92146C229.8 5.27082 230.722 5.29993 231.334 5.04762ZM234.526 7.66781C234.914 7.06613 235.031 6.08599 234.759 5.05732C234.487 4.02866 233.905 3.21349 233.255 2.86413C232.867 3.4658 232.75 4.44594 233.022 5.47461C233.294 6.50328 233.876 7.31845 234.526 7.67751V7.66781ZM233.818 8.00746C233.672 7.38638 233.109 6.69737 232.265 6.19274C231.421 5.69781 230.509 5.52313 229.868 5.6784C230.014 6.29949 230.577 6.9982 231.421 7.49313C232.265 7.98805 233.177 8.16273 233.818 8.00746ZM236.195 11.2099C236.72 10.7053 237.059 9.77366 237.03 8.70618C237.001 7.6484 236.622 6.72648 236.069 6.25096C235.545 6.75559 235.206 7.68722 235.235 8.7547C235.264 9.81248 235.642 10.7344 236.195 11.2099ZM235.409 11.3264C235.371 10.6956 234.934 9.91923 234.187 9.29815C233.439 8.67706 232.576 8.36652 231.906 8.41504C231.945 9.04583 232.382 9.82218 233.139 10.4433C233.886 11.0643 234.75 11.3749 235.419 11.3264H235.409ZM237.098 15.2955C237.69 14.8588 238.146 13.9757 238.263 12.9179C238.379 11.8601 238.127 10.9091 237.651 10.3559C237.059 10.7926 236.603 11.6757 236.487 12.7335C236.37 13.7913 236.622 14.7423 237.098 15.2955ZM236.254 15.4313C236.399 14.8102 236.205 13.9563 235.662 13.1605C235.128 12.3647 234.381 11.8407 233.731 11.7145C233.585 12.3356 233.779 13.1896 234.323 13.9854C234.856 14.7811 235.603 15.3052 236.254 15.4313ZM237.04 19.6819C237.719 19.381 238.369 18.6144 238.738 17.6148C239.097 16.6153 239.078 15.6254 238.738 14.9946C238.059 15.2955 237.409 16.0621 237.04 17.0617C236.681 18.0612 236.7 19.0511 237.04 19.6819ZM236.001 19.4392C236.302 18.8764 236.312 17.9933 235.982 17.1005C235.652 16.2077 235.06 15.5284 234.458 15.2664C234.158 15.8389 234.148 16.7123 234.478 17.6051C234.808 18.4979 235.4 19.1772 236.001 19.4392ZM235.642 23.7965C236.38 23.6898 237.234 23.1366 237.884 22.2729C238.534 21.4092 238.796 20.4582 238.66 19.7595C237.923 19.8662 237.069 20.4194 236.419 21.2831C235.768 22.1468 235.506 23.0978 235.642 23.7965ZM234.73 23.4763C235.147 22.9814 235.371 22.1274 235.264 21.186C235.147 20.2447 234.73 19.4587 234.206 19.0705C233.789 19.5654 233.566 20.4194 233.672 21.3607C233.789 22.302 234.206 23.0881 234.73 23.4763ZM232.644 26.9408C233.177 26.5526 233.595 25.7762 233.711 24.8349C233.828 23.8936 233.614 23.0396 233.187 22.5447C232.663 22.9328 232.236 23.7189 232.12 24.6505C232.003 25.5918 232.217 26.4458 232.644 26.9408ZM233.391 27.4648C234.128 27.5424 235.109 27.2125 235.963 26.5332C236.817 25.8539 237.331 24.9999 237.389 24.2914C236.652 24.2138 235.671 24.5438 234.817 25.2328C233.963 25.9121 233.449 26.7661 233.391 27.4745V27.4648ZM229.393 30.1141C230.062 29.8812 230.751 29.2116 231.188 28.2994C231.625 27.3774 231.693 26.4458 231.431 25.815C230.761 26.0479 230.072 26.7175 229.635 27.6298C229.199 28.5517 229.131 29.4833 229.393 30.1141ZM230.121 30.7352C230.868 30.9972 231.964 30.9099 233.042 30.4246C234.119 29.9394 234.885 29.1922 235.147 28.474C234.4 28.2023 233.304 28.2994 232.226 28.7846C231.149 29.2698 230.383 30.017 230.121 30.7352ZM225.501 32.4529C226.2 32.3364 227.005 31.793 227.597 30.9584C228.199 30.1238 228.432 29.2116 228.286 28.5517C227.588 28.6681 226.782 29.2116 226.19 30.0462C225.598 30.8807 225.356 31.793 225.501 32.4529ZM226.064 33.1904C226.724 33.6077 227.821 33.7532 228.985 33.5203C230.15 33.2777 231.081 32.7149 231.499 32.0647C230.839 31.6474 229.742 31.5018 228.578 31.7347C227.413 31.9773 226.491 32.5402 226.064 33.1807V33.1904ZM221.095 33.6465C221.804 33.6465 222.697 33.2292 223.424 32.5014C224.152 31.7735 224.54 30.9099 224.521 30.2305C223.813 30.2305 222.92 30.6478 222.192 31.3757C221.464 32.1035 221.076 32.9672 221.095 33.6465ZM221.319 34.4325C221.823 35.0148 222.833 35.4612 224.016 35.5486C225.2 35.6359 226.268 35.3545 226.86 34.8498C226.355 34.2676 225.346 33.8212 224.162 33.7338C222.978 33.6465 221.911 33.9279 221.319 34.4325Z" fill="#353535"></path><path d="M217.476 12.7293C217.573 12.5838 217.757 12.545 217.903 12.642C218.049 12.739 218.087 12.9234 217.99 13.069L217.476 12.7293ZM217.99 13.069L217.651 13.593L217.136 13.2534L217.476 12.7293L217.99 13.069ZM217.136 13.2534C217.233 13.1078 217.418 13.069 217.563 13.166C217.709 13.2631 217.748 13.4475 217.651 13.593L217.136 13.2534ZM217.651 13.593L214.73 18.0571L214.215 17.7174L217.136 13.2534L217.651 13.593ZM214.254 18.1056C214.138 17.9891 214.128 17.795 214.254 17.6689C214.371 17.5524 214.574 17.5524 214.691 17.6689L214.254 18.1056ZM214.691 17.6689L218.553 21.4827L218.116 21.9194L214.254 18.1056L214.215 17.7174L214.691 17.6689ZM218.553 21.9194C218.437 22.0359 218.233 22.0359 218.116 21.9194C218 21.803 218 21.5992 218.116 21.4827L218.553 21.9194ZM218.116 21.4827L221.979 17.6689L222.416 18.1056L218.553 21.9194H218.116V21.4827ZM222.454 17.7174C222.551 17.863 222.503 18.0474 222.367 18.1444C222.221 18.2414 222.027 18.1929 221.94 18.0571L222.454 17.7174ZM221.94 18.0571L218.078 12.1568L218.592 11.8171L222.454 17.7174L222.416 18.1056L221.94 18.0571ZM218.078 12.1568C217.981 12.0112 218.029 11.8268 218.165 11.7298C218.311 11.6424 218.505 11.6813 218.592 11.8171L218.078 12.1568Z" fill="#353535"></path><path d="M215.39 16.5078C215.273 16.3914 215.264 16.1973 215.39 16.0711C215.506 15.9547 215.71 15.9547 215.826 16.0711L215.39 16.5078ZM215.826 16.0711L218.553 18.7689L218.117 19.2056L215.39 16.5078L215.826 16.0711ZM218.553 19.2056C218.437 19.3221 218.233 19.3221 218.117 19.2056C218 19.0892 218 18.8951 218.117 18.7689L218.553 19.2056ZM218.117 18.7689L221.979 14.9551L222.416 15.3918L218.553 19.2056H218.117V18.7689ZM222.474 15.0327C222.552 15.188 222.484 15.3724 222.328 15.4403C222.173 15.518 221.989 15.4403 221.921 15.2948L222.474 15.023V15.0327ZM221.921 15.3045L221.135 13.6935L221.688 13.4218L222.474 15.0327L222.416 15.3821L221.921 15.2948V15.3045ZM221.135 13.6935C221.057 13.5383 221.125 13.3539 221.28 13.2859C221.436 13.2083 221.62 13.2762 221.698 13.4315L221.144 13.7032L221.135 13.6935ZM221.164 12.3446C221.241 12.4999 221.174 12.6843 221.018 12.7522C220.863 12.8298 220.679 12.7619 220.601 12.6066L221.154 12.3349L221.164 12.3446ZM220.611 12.6163L218.058 7.40504L218.612 7.13332L221.164 12.3446L220.611 12.6163ZM218.058 7.13332C218.136 6.97805 218.32 6.91982 218.476 6.98775C218.631 7.06539 218.689 7.24977 218.621 7.39534L218.068 7.12361L218.058 7.13332ZM218.612 7.40504L214.749 15.3045L214.196 15.0327L218.058 7.13332H218.612V7.40504ZM214.254 15.3918C214.138 15.2753 214.138 15.0813 214.254 14.9551C214.371 14.8387 214.575 14.8387 214.691 14.9551L214.254 15.3918ZM214.691 14.9551L215.128 15.3821L214.691 15.8188L214.254 15.3918L214.196 15.0424L214.691 14.9648V14.9551ZM215.128 15.3821C215.244 15.4986 215.244 15.6926 215.128 15.8188C215.011 15.9352 214.807 15.9352 214.691 15.8188L215.128 15.3821Z" fill="#353535"></path><path d="M220.416 14.8884C220.3 15.0049 220.096 15.0049 219.98 14.8884C219.863 14.772 219.863 14.5682 219.98 14.4517L220.416 14.8884ZM219.98 14.4517L221.154 13.2872L221.591 13.7239L220.407 14.8884L219.97 14.4517H219.98ZM221.6 13.7239C221.484 13.8403 221.28 13.8403 221.164 13.7239C221.047 13.6074 221.047 13.4133 221.164 13.2872L221.6 13.7239ZM221.164 13.2872L221.979 12.4817L222.416 12.9184L221.6 13.7239L221.164 13.2872ZM222.493 12.5982C222.551 12.7534 222.464 12.9378 222.309 12.9864C222.144 13.0446 221.969 12.9572 221.911 12.802L222.493 12.5982ZM221.911 12.802L218.049 2.05916L218.631 1.85536L222.493 12.5982L222.416 12.9184L221.911 12.802ZM218.049 1.85536C218.107 1.70009 218.281 1.61275 218.446 1.67098C218.611 1.72921 218.689 1.90389 218.631 2.05916L218.049 1.85536ZM218.631 2.05916L214.768 12.802L214.186 12.5982L218.049 1.85536H218.631V2.05916ZM214.254 12.9184C214.138 12.802 214.128 12.6079 214.254 12.4817C214.371 12.3653 214.565 12.3653 214.691 12.4817L214.254 12.9184ZM214.691 12.4817L218.553 16.2956L218.116 16.7323L214.254 12.9184L214.176 12.5982L214.681 12.4817H214.691ZM218.553 16.7323C218.437 16.8487 218.233 16.8487 218.116 16.7323C218 16.6158 218 16.412 218.116 16.2956L218.553 16.7323ZM218.116 16.2956L219.174 15.2572L219.611 15.6939L218.553 16.7323H218.116V16.2956ZM219.174 15.2572C219.291 15.1407 219.494 15.1407 219.611 15.2572C219.727 15.3736 219.727 15.5677 219.611 15.6939L219.174 15.2572Z" fill="#353535"></path><path d="M212.759 16.1063L212.216 16.3877C212.138 16.2421 212.196 16.0577 212.342 15.9704C212.488 15.8928 212.672 15.951 212.75 16.0966M212.206 16.378L212.75 16.0966L213.594 17.7269L213.05 18.0083L212.206 16.378ZM213.555 18.0666L213.089 17.6784C213.196 17.5425 213.39 17.5328 213.516 17.6396C213.642 17.7463 213.662 17.9404 213.555 18.0763V18.0666ZM213.089 17.6784L213.594 17.7269L213.555 18.0666L210.401 21.8804L209.935 21.4922L213.089 17.6784ZM209.935 21.8901L210.401 21.5019C210.508 21.6281 210.488 21.8222 210.362 21.9289C210.236 22.0357 210.042 22.0162 209.935 21.8901ZM210.401 21.5019V21.8901H209.935L206.781 18.0763L207.247 17.6881L210.401 21.5019ZM206.752 17.7366L207.286 18.0277C207.208 18.1733 207.024 18.2315 206.878 18.1539C206.733 18.0763 206.675 17.8822 206.752 17.7366ZM207.286 18.0277L206.781 18.0763L206.743 17.7366L209.896 11.8363L210.43 12.1275L207.276 18.0277H207.286ZM210.44 11.8363L209.906 12.1372C209.829 11.9916 209.877 11.7975 210.023 11.7199C210.168 11.6422 210.353 11.6908 210.44 11.8363ZM209.906 12.1372V11.846H210.44L212.235 15.1164L211.702 15.4173L209.906 12.1469V12.1372ZM211.702 15.4076L212.235 15.1067C212.313 15.2523 212.264 15.4464 212.119 15.524C211.973 15.6016 211.789 15.5531 211.702 15.4076Z" fill="#353535"></path><path d="M207.664 16.4184L208.13 16.0302C208.237 16.1564 208.218 16.3505 208.091 16.4572C207.965 16.564 207.771 16.5446 207.664 16.4184ZM208.13 16.0302L207.664 16.4184L206.801 15.3703L207.267 14.9821L208.13 16.0302ZM206.742 15.0598L207.305 15.2927C207.237 15.448 207.063 15.5256 206.907 15.4674C206.752 15.4091 206.675 15.2248 206.742 15.0695V15.0598ZM207.305 15.2927L206.791 15.3703L206.742 15.0598L209.896 7.16035L210.459 7.39326L207.305 15.2927ZM210.459 7.16035L209.896 7.39326C209.838 7.23799 209.906 7.0536 210.071 6.99538C210.226 6.93715 210.401 7.00508 210.469 7.17005L210.459 7.16035ZM209.896 7.39326V7.16035H210.459L213.613 15.0598L213.05 15.2927L209.896 7.39326ZM213.565 15.38L213.099 14.9919C213.206 14.8657 213.4 14.8463 213.526 14.953C213.652 15.0598 213.671 15.2539 213.565 15.38ZM213.099 14.9919L213.613 15.0695L213.565 15.38L210.411 19.1939L209.945 18.8057L213.099 14.9919ZM209.945 19.2036L210.411 18.8154C210.518 18.9415 210.498 19.1356 210.372 19.2424C210.246 19.3491 210.052 19.3297 209.945 19.2036ZM210.411 18.8154V19.2036H209.945L208.363 17.3015L208.829 16.9133L210.411 18.8154ZM208.829 16.9133L208.363 17.3015C208.256 17.1753 208.276 16.9813 208.402 16.8745C208.528 16.7678 208.722 16.7872 208.829 16.9133Z" fill="#353535"></path><path d="M225.511 20.8904L225.977 20.5023C226.083 20.6284 226.064 20.8225 225.938 20.9293C225.812 21.036 225.618 21.0166 225.511 20.8904ZM225.977 20.5023L225.511 20.8904L223.182 18.0762L223.648 17.688L225.977 20.5023ZM223.143 17.7365L223.677 18.0276C223.599 18.1732 223.415 18.2314 223.269 18.1538C223.123 18.0762 223.065 17.8918 223.143 17.7365ZM223.677 18.0276L223.172 18.0762L223.133 17.7365L226.287 11.8362L226.821 12.1274L223.667 18.0276H223.677ZM226.831 11.8362L226.297 12.1274C226.219 11.9818 226.277 11.7877 226.423 11.7101C226.569 11.6324 226.753 11.6907 226.84 11.8362H226.831ZM226.297 12.1274V11.8362H226.831L229.985 17.7365L229.451 18.0276L226.297 12.1274ZM229.955 18.0762L229.49 17.688C229.596 17.5618 229.79 17.5424 229.917 17.6492C230.043 17.7559 230.062 17.95 229.955 18.0762ZM229.49 17.688L229.994 17.7365L229.955 18.0762L226.801 21.89L226.336 21.5018L229.49 17.688ZM226.336 21.5018L226.801 21.89C226.695 22.0162 226.501 22.0356 226.374 21.9288C226.248 21.8221 226.229 21.628 226.336 21.5018Z" fill="#353535"></path><path d="M228.383 17.2724L227.917 16.8842C228.024 16.7581 228.218 16.7386 228.344 16.8454C228.471 16.9521 228.49 17.1462 228.383 17.2724ZM227.917 16.8842L228.383 17.2724L226.801 19.1842L226.336 18.796L227.908 16.8842H227.917ZM226.345 19.1842L226.811 18.796C226.918 18.9221 226.898 19.1162 226.772 19.223C226.646 19.3297 226.452 19.3103 226.345 19.1842ZM226.811 18.796V19.1842H226.345L223.191 15.3703L223.657 14.9821L226.811 18.796ZM223.143 15.0598L223.706 15.2927C223.638 15.448 223.463 15.5256 223.308 15.4674C223.153 15.4091 223.075 15.2248 223.143 15.0695V15.0598ZM223.706 15.2927L223.191 15.3703L223.143 15.0598L226.297 7.16035L226.86 7.39326L223.706 15.2927ZM226.86 7.16035L226.297 7.39326C226.229 7.23799 226.307 7.0536 226.462 6.99538C226.617 6.93715 226.792 7.00508 226.86 7.17005V7.16035ZM226.297 7.39326V7.16035H226.86L230.014 15.0598L229.451 15.2927L226.297 7.39326ZM229.965 15.38L229.499 14.9919C229.606 14.8657 229.8 14.8463 229.926 14.953C230.052 15.0598 230.072 15.2539 229.965 15.38ZM229.499 14.9919L230.014 15.0695L229.965 15.38L229.111 16.4087L228.645 16.0205L229.499 14.9919ZM228.645 16.0205L229.111 16.4087C229.004 16.5349 228.81 16.5543 228.684 16.4475C228.558 16.3408 228.539 16.1467 228.645 16.0205Z" fill="#353535"></path><path d="M207.218 25.3655C209.469 24.5988 213.603 24.0942 218.329 24.0942C223.055 24.0942 227.199 24.6085 229.441 25.3655" stroke="#353535" stroke-width="0.611377" stroke-linecap="round" stroke-linejoin="round"></path><path d="M218.611 23.988C218.611 24.1627 218.475 24.2985 218.301 24.2985C218.126 24.2985 217.99 24.1627 217.99 23.988H218.611ZM217.99 23.988V21.6298H218.611V23.988H217.99ZM217.99 21.6298C217.99 21.4551 218.126 21.3193 218.301 21.3193C218.475 21.3193 218.611 21.4551 218.611 21.6298H217.99Z" fill="#353535"></path><path d="M226.831 24.6506C226.831 24.8156 226.695 24.9612 226.52 24.9612C226.346 24.9612 226.21 24.8253 226.21 24.6506H226.831ZM226.21 24.6506V21.7587H226.831V24.6506H226.21ZM226.21 21.7587C226.21 21.584 226.346 21.4482 226.52 21.4482C226.695 21.4482 226.831 21.584 226.831 21.7587H226.21Z" fill="#353535"></path><path d="M210.488 24.6506C210.488 24.8156 210.352 24.9612 210.178 24.9612C210.003 24.9612 209.867 24.8253 209.867 24.6506H210.488ZM209.867 24.6506V21.7587H210.488V24.6506H209.867ZM209.867 21.7587C209.867 21.584 210.003 21.4482 210.178 21.4482C210.352 21.4482 210.488 21.584 210.488 21.7587H209.867Z" fill="#353535"></path><path d="M191.274 27.81H182.938V33.7006H192.933V37.922H177.455V14.2724H192.953V18.4938H182.947V23.5789H191.283V27.8003L191.274 27.81ZM176.115 18.5035H169.856V37.9317H164.363V18.5035H158.221V14.2821H176.106V18.5035H176.115ZM145.634 24.6464H148.409C149.516 24.6464 150.36 24.3941 150.942 23.8894C151.525 23.3848 151.816 22.6667 151.816 21.7254C151.816 20.784 151.515 19.9883 150.913 19.3963C150.311 18.8043 149.457 18.5035 148.371 18.5035H145.624V24.6464H145.634ZM145.634 28.8678V37.9317H140.141V14.2724H148.38C151.117 14.2724 153.291 14.9129 154.892 16.1744C156.493 17.4457 157.299 19.1731 157.299 21.376C157.299 22.5988 156.969 23.6468 156.328 24.5299C155.688 25.4033 154.737 26.1215 153.475 26.6746C154.931 27.0822 155.969 27.7712 156.6 28.7319C157.231 29.6927 157.551 30.8863 157.551 32.3129V33.8073C157.551 34.4187 157.648 35.1271 157.832 35.9229C158.017 36.709 158.337 37.2815 158.793 37.6115V37.9414H153.126C152.689 37.6018 152.408 37.0195 152.281 36.1752C152.155 35.3309 152.087 34.5352 152.087 33.7879V32.3614C152.087 31.2357 151.787 30.372 151.195 29.78C150.603 29.188 149.729 28.8872 148.574 28.8872H145.634V28.8678ZM132.213 23.9477C132.213 22.2591 131.815 20.8714 131.019 19.7845C130.223 18.6976 129.098 18.1638 127.652 18.1638C126.206 18.1638 125.032 18.6976 124.245 19.7748C123.469 20.852 123.071 22.2397 123.071 23.9477V28.237C123.071 29.9547 123.469 31.3424 124.265 32.4293C125.061 33.5065 126.206 34.0499 127.681 34.0499C129.156 34.0499 130.233 33.5065 131.029 32.4293C131.815 31.3424 132.213 29.9547 132.213 28.237V23.9477ZM137.696 28.237C137.696 31.1483 136.774 33.5453 134.92 35.4377C133.076 37.33 130.66 38.2714 127.681 38.2811C124.682 38.2811 122.256 37.33 120.393 35.4377C118.53 33.5453 117.598 31.1483 117.598 28.237V23.9768C117.598 21.0752 118.52 18.6782 120.383 16.7858C122.237 14.8935 124.663 13.9424 127.652 13.9424C130.641 13.9424 133.038 14.8935 134.901 16.7858C136.764 18.6782 137.696 21.0752 137.696 23.9768V28.237ZM103.206 25.6071H106.748C107.942 25.6071 108.854 25.2772 109.475 24.627C110.096 23.9768 110.417 23.1325 110.417 22.1038C110.417 21.0752 110.106 20.1921 109.475 19.5225C108.854 18.8529 107.942 18.5132 106.739 18.5132H103.197V25.6071H103.206ZM103.206 29.8285V37.9317H97.7136V14.2724H106.748C109.553 14.2724 111.775 14.9905 113.425 16.417C115.075 17.8436 115.89 19.7262 115.89 22.0553C115.89 24.3844 115.065 26.2573 113.425 27.6839C111.775 29.1104 109.553 29.8188 106.748 29.8188H103.206V29.8285ZM83.9819 29.1104H88.4847L86.2721 21.7642H86.1751L83.9819 29.1104ZM89.7463 33.3318H82.7203L81.352 37.9317H75.5682L83.2832 14.2821H86.2236V14.3015L86.243 14.2821H89.1834L96.9179 37.9317H91.134L89.756 33.3318H89.7463ZM69.7844 31.653C69.7844 30.8087 69.5029 30.1585 68.9595 29.7121C68.4063 29.2657 67.3971 28.7902 65.9511 28.2758C63.0107 27.3248 60.8369 26.3058 59.4103 25.2286C57.9935 24.1515 57.2754 22.5988 57.2754 20.5802C57.2754 18.5617 58.11 16.9993 59.7597 15.7766C61.4192 14.5538 63.525 13.9424 66.0773 13.9424C68.7751 13.9424 70.9489 14.5732 72.5889 15.8348C74.2387 17.0964 75.0247 18.8723 74.9762 21.1722L74.9374 21.2693H69.6097C69.6097 20.1532 69.3088 19.3478 68.6975 18.8432C68.0861 18.3385 67.1739 18.0862 65.9511 18.0862C64.9516 18.0862 64.1655 18.3288 63.5929 18.814C63.0204 19.2993 62.7293 19.9009 62.7293 20.6191C62.7293 21.3372 63.0204 21.8612 63.6124 22.2785C64.2043 22.6958 65.3009 23.2198 66.9118 23.8506C69.6485 24.6561 71.7252 25.6556 73.1324 26.8202C74.5395 27.9944 75.2479 29.5956 75.2479 31.6238C75.2479 33.6521 74.4328 35.3309 72.8121 36.5052C71.1818 37.6794 69.0274 38.2617 66.349 38.2714C63.6706 38.2714 61.4095 37.6406 59.5559 36.379C57.7024 35.1174 56.7999 33.1377 56.8484 30.4205L56.8775 30.3235H62.2246C62.2246 31.7015 62.5643 32.6719 63.2436 33.2542C63.9229 33.8365 64.9613 34.1179 66.3587 34.1179C67.5038 34.1179 68.3578 33.885 68.9304 33.4386C69.4932 32.9825 69.7747 32.3905 69.7747 31.653H69.7844ZM49.9971 31.653C49.9971 30.8087 49.7156 30.1585 49.1722 29.7121C48.619 29.2657 47.6098 28.7902 46.1638 28.2758C43.2234 27.3248 41.0496 26.3058 39.6231 25.2286C38.2062 24.1515 37.4881 22.5988 37.4881 20.5802C37.4881 18.5617 38.3227 16.9993 39.9724 15.7766C41.6319 14.5538 43.7377 13.9424 46.29 13.9424C48.9878 13.9424 51.1616 14.5732 52.8016 15.8348C54.4514 17.0964 55.2375 18.8723 55.1889 21.1722L55.1598 21.2693H49.8321C49.8321 20.1532 49.5313 19.3478 48.9199 18.8432C48.3085 18.3385 47.3963 18.0862 46.1735 18.0862C45.174 18.0862 44.3879 18.3288 43.8154 18.814C43.2331 19.2993 42.9517 19.9009 42.9517 20.6191C42.9517 21.3372 43.2428 21.8612 43.8348 22.2785C44.4267 22.6958 45.5233 23.2198 47.144 23.8506C49.8806 24.6561 51.9574 25.6556 53.3645 26.8202C54.7716 27.9944 55.4801 29.5956 55.4801 31.6238C55.4801 33.6521 54.6746 35.3309 53.0443 36.5052C51.4236 37.6794 49.2595 38.2617 46.5811 38.2714C43.9027 38.2714 41.6416 37.6406 39.7783 36.379C37.9248 35.1174 37.0126 33.1377 37.0708 30.4205L37.1096 30.3235H42.4568C42.4568 31.7015 42.7964 32.6719 43.466 33.2542C44.1453 33.8365 45.1837 34.1179 46.5811 34.1179C47.7262 34.1179 48.5802 33.885 49.1431 33.4386C49.7059 32.9825 49.9874 32.3905 49.9874 31.653H49.9971ZM24.0669 29.1007H28.5698L26.3572 21.7545H26.2601L24.0669 29.1007ZM29.8313 33.3221H22.8053L21.437 37.922H15.6532L23.3682 14.2724H26.3086V14.2918L26.328 14.2724H29.2685L37.0029 37.922H31.2191L29.841 33.3221H29.8313ZM5.5121 25.5877H9.05421C10.2478 25.5877 11.1601 25.2578 11.7811 24.6076C12.4119 23.9574 12.7225 23.1131 12.7225 22.0844C12.7225 21.0558 12.4119 20.1727 11.7811 19.503C11.1601 18.8334 10.2478 18.4938 9.0445 18.4938H5.5024V25.5877H5.5121ZM5.5121 29.8091V37.9123H0V14.2724H9.0348C11.8394 14.2724 14.0617 14.9905 15.7114 16.417C17.3612 17.8436 18.1763 19.7262 18.1763 22.0553C18.1763 24.3844 17.3515 26.2573 15.7114 27.6839C14.0617 29.1104 11.8394 29.8188 9.0348 29.8188H5.49269L5.5121 29.8091Z" fill="#006EC7"></path><path d="M224.278 57.3641C224.278 56.5198 223.997 55.8696 223.453 55.4232C222.9 54.9768 221.891 54.5013 220.445 53.987C217.504 53.0359 215.331 52.017 213.904 50.9398C212.487 49.8626 211.769 48.3099 211.769 46.2914C211.769 44.2728 212.604 42.7104 214.253 41.4877C215.913 40.2649 218.019 39.6535 220.571 39.6535C223.269 39.6535 225.443 40.2843 227.083 41.5459C228.732 42.8075 229.518 44.5834 229.47 46.8833L229.441 46.9804H224.113C224.113 45.8644 223.812 45.0589 223.201 44.5543C222.589 44.0496 221.677 43.7973 220.455 43.7973C219.455 43.7973 218.669 44.0399 218.096 44.5252C217.524 45.0104 217.242 45.6121 217.242 46.3302C217.242 47.0483 217.533 47.582 218.125 47.9896C218.717 48.4069 219.814 48.931 221.425 49.5617C224.162 50.3672 226.238 51.3668 227.645 52.5313C229.053 53.7055 229.761 55.3068 229.761 57.335C229.761 59.3632 228.946 61.0421 227.325 62.2163C225.705 63.3905 223.541 63.9728 220.862 63.9825C218.184 63.9825 215.923 63.3517 214.059 62.0901C212.206 60.8286 211.294 58.8489 211.352 56.1316L211.381 56.0346H216.728C216.728 57.4126 217.068 58.383 217.747 58.9653C218.426 59.5379 219.455 59.829 220.852 59.829C221.998 59.829 222.852 59.6058 223.424 59.1497C223.987 58.6936 224.268 58.1016 224.268 57.3641M204.132 49.6491C204.132 47.9605 203.744 46.5728 202.938 45.4859C202.142 44.399 201.017 43.8653 199.571 43.8653C198.125 43.8653 196.95 44.399 196.164 45.4762C195.378 46.5534 194.99 47.9411 194.99 49.6491V53.9384C194.99 55.6464 195.388 57.0438 196.184 58.1307C196.98 59.2079 198.125 59.7514 199.609 59.7514C201.094 59.7514 202.162 59.2079 202.957 58.1307C203.744 57.0438 204.141 55.6561 204.141 53.9384V49.6491H204.132ZM209.615 53.9384C209.615 56.8498 208.693 59.2467 206.839 61.1391C204.995 63.0315 202.579 63.9728 199.6 63.9825C196.601 63.9825 194.175 63.0315 192.312 61.1391C190.449 59.2467 189.517 56.8498 189.517 53.9384V49.6782C189.517 46.7766 190.439 44.3796 192.302 42.4872C194.156 40.5949 196.582 39.6438 199.571 39.6438C202.56 39.6438 204.957 40.5949 206.82 42.4872C208.683 44.3796 209.615 46.7766 209.615 49.6782V53.9384ZM175.125 50.3478H177.901C179.007 50.3478 179.851 50.0955 180.434 49.5909C181.026 49.0862 181.307 48.3681 181.307 47.4268C181.307 46.4854 181.006 45.6897 180.404 45.0977C179.803 44.5058 178.949 44.2049 177.862 44.2049H175.116V50.3478H175.125ZM175.125 54.5692V63.6331H169.633V39.9835H177.872C180.608 39.9835 182.782 40.624 184.383 41.8856C185.984 43.1568 186.79 44.8842 186.79 47.0871C186.79 48.3099 186.46 49.358 185.819 50.2411C185.179 51.1144 184.228 51.8326 182.966 52.3857C184.422 52.7933 185.46 53.4726 186.091 54.4334C186.722 55.3941 187.042 56.5877 187.042 58.0143V59.5088C187.042 60.1201 187.139 60.8286 187.324 61.6243C187.508 62.4104 187.828 62.9732 188.284 63.3129V63.6428H182.617C182.18 63.3032 181.899 62.7209 181.773 61.8766C181.647 61.0323 181.579 60.2366 181.579 59.4893V58.0628C181.579 56.9371 181.278 56.0831 180.686 55.4814C180.094 54.8895 179.221 54.5886 178.066 54.5886H175.125V54.5692ZM166.42 63.6331H160.937V39.9835H166.42V63.6331ZM156.745 53.5114H148.409V59.402H158.395V63.6234H142.916V39.9738H158.414V44.1952H148.409V49.2803H156.745V53.5017V53.5114ZM140.044 63.6331H134.571V54.1131H125.817V63.6331H120.324V39.9835H125.817V49.8917H134.571V39.9835H140.044V63.6331ZM117.442 63.6331H111.959L103.303 48.7563L103.206 48.7854V63.6331H97.7132V39.9835H103.206L111.872 54.8506L111.969 54.8215V39.9932H117.452V63.6428L117.442 63.6331ZM94.5011 63.6331H89.0181V39.9835H94.5011V63.6331ZM73.8501 51.2988H77.3922C78.5859 51.2988 79.4981 50.9689 80.1192 50.3187C80.7499 49.6685 81.0605 48.8242 81.0605 47.7955C81.0605 46.7669 80.7499 45.8838 80.1192 45.2142C79.4981 44.5446 78.5859 44.2049 77.3825 44.2049H73.8404V51.2988H73.8501ZM73.8501 55.5202V63.6234H68.3574V39.9738H77.3922C80.1968 39.9738 82.4191 40.6919 84.0688 42.1185C85.7186 43.545 86.5338 45.4277 86.5338 47.7567C86.5338 50.0858 85.7089 51.9587 84.0688 53.3853C82.4191 54.8118 80.1968 55.5202 77.3922 55.5202H73.8501Z" fill="#006EC7"></path></g></g><defs><clipPath id="clip0_0_3"><rect width="239" height="64" fill="white"></rect></clipPath></defs></svg>